<svg xmlns="http://www.w3.org/2000/svg" width="136" height="79" viewBox="0 0 35.983 20.902"><path d="m82.936 60.634-.364-.364 2.427-2.428 2.428-2.427-2.434-2.434-2.434-2.434 2.434-2.434 2.434-2.434-2.428-2.428-2.427-2.428.364-.363.364-.364 2.42 2.421 2.421 2.42 2.422-2.42 2.42-2.421.087.085.085.086.086-.086.086-.085 2.421 2.42 2.421 2.422 2.42-2.42 2.422-2.422.364.364.364.363-2.428 2.428-2.427 2.428 2.434 2.434 2.434 2.434-2.434 2.434-2.434 2.434 2.427 2.428 2.428 2.427-.364.364-.364.363-2.421-2.42-2.42-2.421-2.422 2.42-2.421 2.422-.086-.085-.085-.086-.087.085-.087.084-2.42-2.42-2.42-2.42-2.422 2.42-2.42 2.421zm14.81-5.51 4.577-4.577-4.584-4.584-4.584-4.584-4.584 4.584-4.583 4.584 4.577 4.577c2.517 2.517 4.583 4.577 4.59 4.577.008 0 2.073-2.06 4.59-4.577zm-6.511-2.77c.009-.1.063-.87.12-1.715.058-.844.113-1.609.122-1.7l.016-.167.307.008.306.007.3.847c.308.87.572 1.679.659 2.017.044.174.09.252.09.153 0-.102.3-1.006.65-1.965l.39-1.065h.627v.086c0 .047.048.842.106 1.766.058.924.106 1.73.106 1.793v.112h-.448l-.013-.086c-.02-.13-.12-2.022-.14-2.648l-.016-.552-.18.551a69.574 69.574 0 0 1-.571 1.63l-.392 1.078h-.37l-.419-1.25a47.785 47.785 0 0 1-.519-1.62l-.1-.37-.017.37c-.034.704-.075 1.458-.118 2.17l-.044.714-.234.007-.235.008zm-16.071-2.072v-.132h5.291v.264h-5.291Zm30.691 0v-.132h5.292v.264h-5.292z" style="fill:#fff;stroke-width:.0264577" transform="translate(-75.164 -40.096)"/></svg>