<svg xmlns="http://www.w3.org/2000/svg" width="39" height="37" viewBox="0 0 10.319 9.79"><path d="m24.34 56.082-.176-.172 1.182-1.15 1.182-1.152-.977-.951c-.872-.849-.981-.95-1.007-.927-.025.023-.048.006-.205-.147-.156-.152-.174-.176-.148-.196.025-.02.025-.027.001-.053s-.01-.045.15-.2c.156-.152.18-.168.203-.145.024.023.138-.082 1.005-.926l.978-.952-1.182-1.15-1.182-1.152.177-.172.176-.172 1.183 1.151 1.182 1.151 1.182-1.151 1.183-1.151.04.039.04.039.042-.038.042-.038 1.175 1.144 1.176 1.145 1.188-1.146 1.187-1.145.173.168.173.168-1.187 1.155-1.187 1.155.982.956c.937.912.984.955 1.016.926.032-.028.042-.021.202.136.154.15.166.167.145.2-.018.028-.018.043-.002.061.016.02-.013.057-.15.19-.15.145-.174.162-.2.141-.026-.02-.143.087-1.011.932l-.982.955 1.183 1.151 1.182 1.152-.17.165-.172.166-1.183-1.14-1.184-1.14-1.179 1.147c-1.17 1.138-1.179 1.146-1.212 1.11-.04-.043-.06-.044-.104-.006-.033.03-.081-.016-1.211-1.115l-1.177-1.146-1.182 1.151-1.183 1.151zm7.185-2.575a188.346 188.346 0 0 0 2.188-2.147c0-.023-4.37-4.277-4.394-4.278-.01 0-1.002.962-2.204 2.138l-2.186 2.14 2.184 2.138c1.2 1.176 2.193 2.139 2.204 2.139.01 0 1.005-.959 2.208-2.13z" style="fill:#fff;stroke-width:.0178764" transform="translate(-24.164 -46.465)"/><path d="M28.768 53.338a.596.596 0 0 1-.2-.082c-.088-.058-.222-.23-.365-.469a1.847 1.847 0 0 1-.126-.24 2.74 2.74 0 0 1-.201-1.27c.034-.306.127-.542.283-.72a.728.728 0 0 1 .862-.202.8.8 0 0 0 .35.07.698.698 0 0 0 .277-.068c.09-.04.175-.07.246-.086a.576.576 0 0 1 .37.047c.128.058.245.143.33.239a.38.38 0 0 1 .075.103c0 .005-.01.017-.023.027a1.003 1.003 0 0 0-.328.666c-.006.067-.002.224.007.281a.856.856 0 0 0 .309.552.72.72 0 0 0 .145.084c0 .006-.048.151-.066.2-.103.28-.3.593-.452.717a.508.508 0 0 1-.33.13.355.355 0 0 1-.149-.03 1.203 1.203 0 0 0-.204-.072.668.668 0 0 0-.515.064.411.411 0 0 1-.113.052.488.488 0 0 1-.182.007zm.53-3.054c0-.136.035-.308.087-.427a.823.823 0 0 1 .362-.398c.078-.043.211-.092.225-.083a.37.37 0 0 1 .015.133.87.87 0 0 1-.073.327c-.127.306-.329.483-.564.498l-.052.003z" style="fill:#fff;stroke-width:.00468371" transform="translate(-24.164 -46.465)"/></svg>