<svg xmlns="http://www.w3.org/2000/svg" width="511.65" height="358.185" viewBox="0 0 135.374 94.77"><path d="M108.884 148.435c-1.47-.685-2.899-2.15-3.503-3.592-1.015-2.425-.184-5.813 1.855-7.559 2.144-1.834.065-1.737 35.4-1.659l31.867.07 1.058.572c2.436 1.317 3.688 3.364 3.696 6.043.004 1.555-.119 2.075-.764 3.242-.422.765-1.164 1.692-1.647 2.06-1.982 1.513-.344 1.445-34.854 1.442l-31.783-.003-1.325-.617zM49.62 108.33c-2.462-.424-4.483-2.133-5.277-4.464-1.096-3.218.39-6.752 3.484-8.29l1.264-.627h125.148l1.264.627c.695.346 1.671 1.104 2.169 1.685 2.916 3.407 1.938 8.349-2.07 10.463l-1.363.718-61.78.035c-33.98.02-62.256-.047-62.839-.147zm33.204-40.747a7.021 7.021 0 0 1-3.078-1.915c-1.382-1.47-1.8-2.531-1.806-4.586-.005-1.555.118-2.075.763-3.242.865-1.565 2.008-2.549 3.623-3.118 1.651-.583 90.894-.583 92.546 0 1.615.57 2.757 1.553 3.622 3.118.645 1.167.768 1.687.764 3.242-.008 2.679-1.26 4.725-3.696 6.042l-1.058.572-45.509.045c-25.03.025-45.806-.046-46.171-.158z" style="fill:#fff;stroke-width:.264583" transform="translate(-43.983 -54.286)"/></svg>