<svg xmlns="http://www.w3.org/2000/svg" width="148" height="107" viewBox="0 0 39.158 28.31"><path d="M173.126 21.623a685.5 685.5 0 0 1 3.733-3.768c2.048-2.059 3.724-3.756 3.724-3.771 0-.016-1.466-1.507-3.257-3.314l-3.257-3.286 1.017-1.021c.559-.562 2.032-2.044 3.272-3.294l2.257-2.273-1.862-1.868-3.766-3.78-1.905-1.911h1.963l3.262 3.282c1.794 1.805 3.27 3.278 3.28 3.274.01-.004 1.416-1.422 3.125-3.151 2.984-3.019 3.108-3.147 3.116-3.248l.008-.106.076.046c.073.043.08.043.13-.002.05-.047.052-.045.06.06.008.103.108.208 3.116 3.25a758.655 758.655 0 0 0 3.125 3.15c.009.005 1.468-1.468 3.242-3.272l3.225-3.28.98-.002.978-.001-1.021 1.025c-2.992 3.003-6.48 6.53-6.473 6.546.004.01 1.469 1.491 3.255 3.291 1.787 1.8 3.246 3.282 3.242 3.293-.004.011-1.467 1.493-3.25 3.293-1.782 1.8-3.24 3.283-3.24 3.297 0 .013 1.161 1.194 2.58 2.624 1.42 1.43 3.104 3.126 3.741 3.77l1.16 1.171-.976-.002-.976-.001-3.225-3.28c-1.774-1.804-3.233-3.277-3.243-3.273-.01.004-1.416 1.422-3.125 3.15-3.01 3.046-3.107 3.147-3.115 3.25-.008.106-.009.107-.06.061-.05-.045-.057-.045-.13-.002l-.076.045-.008-.105c-.008-.102-.127-.226-3.115-3.248a634.418 634.418 0 0 0-3.125-3.151c-.01-.004-1.487 1.47-3.282 3.274l-3.263 3.282h-.963c-.557 0-.959-.01-.954-.024zm20.947-8.307c3.167-3.192 5.759-5.813 5.759-5.824 0-.021-7.113-7.205-10.067-10.168l-1.842-1.847-3.928 3.964a6114.14 6114.14 0 0 1-5.945 5.992c-1.11 1.116-2.018 2.04-2.018 2.056 0 .021 6.623 6.716 11.018 11.135l.874.88.195-.192c.107-.105 2.786-2.804 5.954-5.996zm-25.82-5.956v-.265h3.44v.529h-3.44zm35.72 0v-.265h3.439v.529h-3.44z" style="fill:#fff;stroke-width:.0264583" transform="translate(-168.254 6.663)"/></svg>